<svg width="18" height="18" viewBox="0 0 18 18" fill="none" xmlns="http://www.w3.org/2000/svg">
<path d="M13.8524 12.6225L14.1449 14.9925C14.2199 15.615 13.5524 16.05 13.0199 15.7275L9.87738 13.86C9.53238 13.86 9.19489 13.8375 8.86489 13.7925C9.41989 13.14 9.74989 12.315 9.74989 11.4225C9.74989 9.29249 7.90489 7.56752 5.62489 7.56752C4.75489 7.56752 3.95239 7.815 3.28489 8.25C3.26239 8.0625 3.25488 7.87499 3.25488 7.67999C3.25488 4.26749 6.21738 1.5 9.87738 1.5C13.5374 1.5 16.4999 4.26749 16.4999 7.67999C16.4999 9.70499 15.4574 11.4975 13.8524 12.6225Z" stroke="#B1B4BA" stroke-width="1.5" stroke-linecap="round" stroke-linejoin="round"/>
<path d="M9.75 11.4223C9.75 12.3148 9.42001 13.1399 8.86501 13.7924C8.12251 14.6924 6.945 15.2699 5.625 15.2699L3.6675 16.4323C3.3375 16.6348 2.9175 16.3574 2.9625 15.9749L3.15 14.4974C2.145 13.7999 1.5 12.6823 1.5 11.4223C1.5 10.1023 2.205 8.93986 3.285 8.24986C3.9525 7.81486 4.755 7.56738 5.625 7.56738C7.905 7.56738 9.75 9.29235 9.75 11.4223Z" stroke="#B1B4BA" stroke-width="1.5" stroke-linecap="round" stroke-linejoin="round"/>
</svg>
